<svg width="229" height="62" viewBox="0 0 229 62" fill="none" xmlns="http://www.w3.org/2000/svg">
<path d="M73 3.28125H74.0412V4.52344C74.3519 4.03385 74.6795 3.66927 75.0242 3.42969C75.3688 3.1849 75.728 3.0625 76.1018 3.0625C76.3833 3.0625 76.6843 3.15885 77.0047 3.35156L76.4732 4.27344C76.2596 4.17448 76.08 4.125 75.9343 4.125C75.5945 4.125 75.2669 4.27604 74.9514 4.57813C74.6359 4.875 74.3956 5.33854 74.2305 5.96875C74.1043 6.45313 74.0412 7.43229 74.0412 8.90625V11.7813H73V3.28125Z" fill="white"/>
<path d="M85.764 3.28125V11.7813H84.7592V10.3203C84.332 10.8776 83.8515 11.2969 83.3175 11.5781C82.7884 11.8594 82.2083 12 81.5773 12C80.456 12 79.4973 11.5651 78.7012 10.6953C77.91 9.82031 77.5144 8.75781 77.5144 7.50781C77.5144 6.28385 77.9148 5.23698 78.7158 4.36719C79.5167 3.4974 80.4803 3.0625 81.6064 3.0625C82.2569 3.0625 82.8442 3.21094 83.3685 3.50781C83.8976 3.80469 84.3612 4.25 84.7592 4.84375V3.28125H85.764ZM81.6865 4.11719C81.1186 4.11719 80.5943 4.26823 80.1138 4.57031C79.6332 4.86719 79.2497 5.28646 78.9633 5.82813C78.6818 6.36979 78.541 6.94271 78.541 7.54688C78.541 8.14583 78.6842 8.71875 78.9706 9.26563C79.257 9.8125 79.6405 10.2396 80.1211 10.5469C80.6065 10.849 81.1259 11 81.6792 11C82.2375 11 82.7666 10.849 83.2665 10.5469C83.7665 10.2448 84.15 9.83594 84.417 9.32031C84.6888 8.80469 84.8247 8.22396 84.8247 7.57813C84.8247 6.59375 84.5213 5.77083 83.9146 5.10938C83.3127 4.44792 82.57 4.11719 81.6865 4.11719Z" fill="white"/>
<path d="M88.0649 3.28125H89.0843V4.80469C89.492 4.22135 89.9434 3.78646 90.4386 3.5C90.9337 3.20833 91.4725 3.0625 92.055 3.0625C92.6472 3.0625 93.1715 3.22396 93.6277 3.54688C94.0889 3.86979 94.4287 4.30469 94.6471 4.85156C94.8656 5.39844 94.9748 6.25 94.9748 7.40625V11.7813H93.9627V7.72656C93.9627 6.7474 93.9239 6.09375 93.8462 5.76563C93.7248 5.20313 93.4967 4.78125 93.1617 4.5C92.8268 4.21354 92.3899 4.07031 91.8511 4.07031C91.2346 4.07031 90.6813 4.28906 90.191 4.72656C89.7056 5.16406 89.3852 5.70573 89.2299 6.35156C89.1328 6.77344 89.0843 7.54427 89.0843 8.66406V11.7813H88.0649V3.28125Z" fill="white"/>
<path d="M105.074 0V11.7813H104.069V10.3203C103.642 10.8776 103.161 11.2969 102.627 11.5781C102.098 11.8594 101.518 12 100.887 12C99.7658 12 98.8071 11.5651 98.0111 10.6953C97.2198 9.82031 96.8242 8.75781 96.8242 7.50781C96.8242 6.28385 97.2247 5.23698 98.0256 4.36719C98.8266 3.4974 99.7901 3.0625 100.916 3.0625C101.567 3.0625 102.154 3.21094 102.678 3.50781C103.207 3.80469 103.671 4.25 104.069 4.84375V0H105.074ZM100.996 4.11719C100.428 4.11719 99.9042 4.26823 99.4236 4.57031C98.9431 4.86719 98.5596 5.28646 98.2732 5.82813C97.9916 6.36979 97.8509 6.94271 97.8509 7.54688C97.8509 8.14583 97.9941 8.71875 98.2805 9.26563C98.5669 9.8125 98.9503 10.2396 99.4309 10.5469C99.9163 10.849 100.436 11 100.989 11C101.547 11 102.076 10.849 102.576 10.5469C103.076 10.2448 103.46 9.83594 103.727 9.32031C103.999 8.80469 104.135 8.22396 104.135 7.57813C104.135 6.59375 103.831 5.77083 103.224 5.10938C102.623 4.44792 101.88 4.11719 100.996 4.11719Z" fill="white"/>
<path d="M111.139 3.0625C112.358 3.0625 113.367 3.53646 114.168 4.48438C114.896 5.34896 115.26 6.3724 115.26 7.55469C115.26 8.74219 114.874 9.78125 114.103 10.6719C113.336 11.5573 112.348 12 111.139 12C109.926 12 108.933 11.5573 108.161 10.6719C107.394 9.78125 107.011 8.74219 107.011 7.55469C107.011 6.3776 107.375 5.35677 108.103 4.49219C108.904 3.53906 109.916 3.0625 111.139 3.0625ZM111.139 4.13281C110.294 4.13281 109.569 4.46875 108.962 5.14063C108.355 5.8125 108.052 6.625 108.052 7.57813C108.052 8.19271 108.19 8.76563 108.467 9.29688C108.744 9.82813 109.117 10.2396 109.588 10.5313C110.059 10.8177 110.576 10.9609 111.139 10.9609C111.702 10.9609 112.219 10.8177 112.69 10.5313C113.161 10.2396 113.535 9.82813 113.811 9.29688C114.088 8.76563 114.226 8.19271 114.226 7.57813C114.226 6.625 113.921 5.8125 113.309 5.14063C112.702 4.46875 111.979 4.13281 111.139 4.13281Z" fill="white"/>
<path d="M117.153 3.28125H118.166V4.75C118.52 4.20833 118.884 3.8125 119.258 3.5625C119.772 3.22917 120.313 3.0625 120.881 3.0625C121.265 3.0625 121.629 3.14323 121.974 3.30469C122.318 3.46615 122.6 3.68229 122.818 3.95313C123.037 4.21875 123.226 4.60156 123.386 5.10156C123.726 4.4349 124.151 3.92969 124.66 3.58594C125.17 3.23698 125.719 3.0625 126.306 3.0625C126.854 3.0625 127.337 3.21094 127.755 3.50781C128.177 3.80469 128.49 4.21875 128.694 4.75C128.898 5.28125 129 6.07813 129 7.14063V11.7813H127.959V7.14063C127.959 6.22917 127.898 5.60417 127.777 5.26563C127.655 4.92188 127.447 4.64583 127.151 4.4375C126.859 4.22917 126.51 4.125 126.102 4.125C125.607 4.125 125.153 4.28125 124.74 4.59375C124.333 4.90625 124.034 5.32292 123.845 5.84375C123.656 6.36458 123.561 7.23438 123.561 8.45313V11.7813H122.549V7.42969C122.549 6.40365 122.488 5.70833 122.367 5.34375C122.25 4.97396 122.044 4.67969 121.748 4.46094C121.452 4.23698 121.1 4.125 120.692 4.125C120.221 4.125 119.78 4.27865 119.367 4.58594C118.959 4.88802 118.656 5.29688 118.457 5.8125C118.263 6.32813 118.166 7.11719 118.166 8.17969V11.7813H117.153V3.28125Z" fill="white"/>
<path d="M106.364 26.1039L102.025 30.4008C99.2791 27.4921 96.0781 26.0378 92.4219 26.0378C89.2356 26.0378 86.5632 27.0955 84.4047 29.2109C82.261 31.3263 81.1891 33.8972 81.1891 36.9234C81.1891 40.0525 82.305 42.7041 84.5369 44.8783C86.7688 47.0525 89.5219 48.1396 92.7963 48.1396C94.9254 48.1396 96.7168 47.6915 98.1705 46.7954C99.6388 45.8993 100.821 44.4963 101.717 42.5866H92.3338V36.7912H108.632L108.676 38.1574C108.676 40.9927 107.942 43.681 106.474 46.2225C105.006 48.7639 103.104 50.703 100.769 52.0399C98.4348 53.3767 95.6963 54.0451 92.5541 54.0451C89.1916 54.0451 86.1888 53.3179 83.5458 51.8636C80.9174 50.3945 78.8324 48.3085 77.2906 45.6055C75.7635 42.9024 75 39.9864 75 36.8573C75 32.5677 76.417 28.8363 79.2509 25.6632C82.6134 21.8877 86.989 20 92.3779 20C95.1971 20 97.8328 20.5215 100.285 21.5645C102.355 22.446 104.382 23.9591 106.364 26.1039Z" fill="white"/>
<path d="M112.267 29.255H117.42V32.2739C117.978 31.0839 118.72 30.1805 119.645 29.5635C120.57 28.9465 121.583 28.638 122.684 28.638C123.463 28.638 124.278 28.8437 125.129 29.255L123.257 34.4334C122.552 34.0808 121.972 33.9045 121.517 33.9045C120.592 33.9045 119.807 34.4774 119.16 35.6233C118.529 36.7692 118.213 39.0168 118.213 42.3662L118.235 43.5341V53.2298H112.267V29.255Z" fill="white"/>
<path d="M139.38 28.638C141.641 28.638 143.763 29.2036 145.745 30.3347C147.742 31.4659 149.298 33.001 150.414 34.9402C151.53 36.8793 152.088 38.9727 152.088 41.2204C152.088 43.4827 151.523 45.5981 150.392 47.5666C149.276 49.5352 147.749 51.0777 145.811 52.1941C143.873 53.2959 141.736 53.8468 139.402 53.8468C135.966 53.8468 133.029 52.6275 130.592 50.1889C128.169 47.7356 126.957 44.7608 126.957 41.2644C126.957 37.5184 128.33 34.3966 131.076 31.8993C133.484 29.7251 136.252 28.638 139.38 28.638ZM139.468 34.3012C137.603 34.3012 136.046 34.9549 134.798 36.2623C133.565 37.5551 132.948 39.2151 132.948 41.2424C132.948 43.3284 133.558 45.0178 134.776 46.3106C136.01 47.6034 137.566 48.2497 139.446 48.2497C141.325 48.2497 142.889 47.596 144.137 46.2886C145.385 44.9811 146.009 43.2991 146.009 41.2424C146.009 39.1857 145.392 37.5184 144.159 36.2403C142.94 34.9475 141.377 34.3012 139.468 34.3012Z" fill="white"/>
<path d="M157 29.255H163.079V40.8017C163.079 43.0493 163.233 44.6139 163.541 45.4953C163.85 46.362 164.341 47.0378 165.017 47.5226C165.707 48.0073 166.551 48.2497 167.55 48.2497C168.548 48.2497 169.393 48.0147 170.083 47.5446C170.787 47.0598 171.309 46.3547 171.646 45.4292C171.896 44.7387 172.021 43.2623 172.021 41V29.255H178.056V39.4134C178.056 43.6002 177.725 46.4648 177.065 48.0073C176.257 49.8877 175.068 51.3347 173.497 52.3484C171.925 53.3473 169.928 53.8468 167.506 53.8468C164.877 53.8468 162.748 53.2592 161.118 52.0839C159.503 50.9087 158.365 49.2707 157.705 47.17C157.235 45.7156 157 43.0714 157 39.2371V29.255Z" fill="white"/>
<path d="M190.082 29.255V31.8993C191.168 30.8122 192.343 29.9969 193.606 29.4533C194.868 28.9098 196.219 28.638 197.658 28.638C200.786 28.638 203.443 29.8206 205.631 32.1857C207.819 34.5509 208.913 37.5845 208.913 41.2865C208.913 44.8562 207.782 47.8458 205.521 50.255C203.26 52.6495 200.58 53.8468 197.482 53.8468C196.102 53.8468 194.817 53.6044 193.628 53.1196C192.438 52.6201 191.256 51.8122 190.082 50.6957V62H184.113V29.255H190.082ZM196.403 34.191C194.509 34.191 192.937 34.8374 191.689 36.1301C190.441 37.4229 189.817 39.1123 189.817 41.1983C189.817 43.3284 190.441 45.0546 191.689 46.3767C192.937 47.6842 194.509 48.3379 196.403 48.3379C198.238 48.3379 199.78 47.6695 201.028 46.3326C202.291 44.9958 202.922 43.2917 202.922 41.2204C202.922 39.1637 202.305 37.4816 201.072 36.1742C199.839 34.852 198.282 34.191 196.403 34.191Z" fill="white"/>
<path d="M228.559 32.6044L224.837 36.3284C223.325 34.83 221.952 34.0808 220.719 34.0808C220.043 34.0808 219.514 34.2277 219.133 34.5215C218.751 34.8006 218.56 35.1532 218.56 35.5792C218.56 35.9024 218.678 36.2036 218.912 36.4827C219.162 36.7471 219.764 37.1144 220.719 37.5845L222.921 38.6863C225.241 39.8321 226.834 41 227.701 42.1899C228.567 43.3799 229 44.7754 229 46.3767C229 48.5068 228.214 50.2844 226.643 51.7093C225.087 53.1343 222.994 53.8468 220.366 53.8468C216.871 53.8468 214.082 52.4806 211.997 49.7482L215.697 45.7156C216.402 46.5383 217.224 47.2067 218.164 47.7209C219.118 48.2204 219.962 48.4701 220.697 48.4701C221.489 48.4701 222.128 48.2791 222.613 47.8972C223.097 47.5152 223.34 47.0745 223.34 46.575C223.34 45.6495 222.466 44.7461 220.719 43.8646L218.692 42.851C214.816 40.8972 212.878 38.4512 212.878 35.5131C212.878 33.618 213.604 32.0021 215.058 30.6653C216.526 29.3137 218.399 28.638 220.674 28.638C222.231 28.638 223.692 28.9832 225.057 29.6737C226.438 30.3494 227.605 31.3263 228.559 32.6044Z" fill="white"/>
<path d="M31 17H41V54H31V17Z" fill="#FFC90A"/>
<path d="M47 32H56V54H47V32Z" fill="#179C52"/>
<path d="M16 32H25V54H16V32Z" fill="#FF3E30"/>
<path d="M0 5H9V54H0V5Z" fill="#176BEF"/>
</svg>
