<svg width="218" height="62" viewBox="0 0 218 62" fill="none" xmlns="http://www.w3.org/2000/svg">
<path d="M62 3.28125H63.0412V4.52344C63.3519 4.03385 63.6795 3.66927 64.0242 3.42969C64.3688 3.1849 64.728 3.0625 65.1018 3.0625C65.3833 3.0625 65.6843 3.15885 66.0047 3.35156L65.4732 4.27344C65.2596 4.17448 65.08 4.125 64.9343 4.125C64.5945 4.125 64.2669 4.27604 63.9514 4.57813C63.6359 4.875 63.3956 5.33854 63.2305 5.96875C63.1043 6.45313 63.0412 7.43229 63.0412 8.90625V11.7813H62V3.28125Z" fill="white"/>
<path d="M74.764 3.28125V11.7813H73.7592V10.3203C73.332 10.8776 72.8515 11.2969 72.3175 11.5781C71.7884 11.8594 71.2083 12 70.5773 12C69.456 12 68.4973 11.5651 67.7012 10.6953C66.91 9.82031 66.5144 8.75781 66.5144 7.50781C66.5144 6.28385 66.9148 5.23698 67.7158 4.36719C68.5167 3.4974 69.4803 3.0625 70.6064 3.0625C71.2569 3.0625 71.8442 3.21094 72.3685 3.50781C72.8976 3.80469 73.3612 4.25 73.7592 4.84375V3.28125H74.764ZM70.6865 4.11719C70.1186 4.11719 69.5943 4.26823 69.1138 4.57031C68.6332 4.86719 68.2497 5.28646 67.9633 5.82813C67.6818 6.36979 67.541 6.94271 67.541 7.54688C67.541 8.14583 67.6842 8.71875 67.9706 9.26563C68.257 9.8125 68.6405 10.2396 69.1211 10.5469C69.6065 10.849 70.1259 11 70.6792 11C71.2375 11 71.7666 10.849 72.2665 10.5469C72.7665 10.2448 73.15 9.83594 73.417 9.32031C73.6888 8.80469 73.8247 8.22396 73.8247 7.57813C73.8247 6.59375 73.5213 5.77083 72.9146 5.10938C72.3127 4.44792 71.57 4.11719 70.6865 4.11719Z" fill="white"/>
<path d="M77.0649 3.28125H78.0843V4.80469C78.492 4.22135 78.9434 3.78646 79.4386 3.5C79.9337 3.20833 80.4725 3.0625 81.055 3.0625C81.6472 3.0625 82.1715 3.22396 82.6277 3.54688C83.0889 3.86979 83.4287 4.30469 83.6471 4.85156C83.8656 5.39844 83.9748 6.25 83.9748 7.40625V11.7813H82.9627V7.72656C82.9627 6.7474 82.9239 6.09375 82.8462 5.76563C82.7248 5.20313 82.4967 4.78125 82.1617 4.5C81.8268 4.21354 81.3899 4.07031 80.8511 4.07031C80.2346 4.07031 79.6813 4.28906 79.191 4.72656C78.7056 5.16406 78.3852 5.70573 78.2299 6.35156C78.1328 6.77344 78.0843 7.54427 78.0843 8.66406V11.7813H77.0649V3.28125Z" fill="white"/>
<path d="M94.0739 0V11.7813H93.069V10.3203C92.6419 10.8776 92.1613 11.2969 91.6274 11.5781C91.0983 11.8594 90.5182 12 89.8871 12C88.7658 12 87.8071 11.5651 87.0111 10.6953C86.2198 9.82031 85.8242 8.75781 85.8242 7.50781C85.8242 6.28385 86.2247 5.23698 87.0256 4.36719C87.8266 3.4974 88.7901 3.0625 89.9163 3.0625C90.5667 3.0625 91.1541 3.21094 91.6783 3.50781C92.2074 3.80469 92.671 4.25 93.069 4.84375V0H94.0739ZM89.9964 4.11719C89.4284 4.11719 88.9042 4.26823 88.4236 4.57031C87.9431 4.86719 87.5596 5.28646 87.2732 5.82813C86.9916 6.36979 86.8509 6.94271 86.8509 7.54688C86.8509 8.14583 86.9941 8.71875 87.2805 9.26563C87.5669 9.8125 87.9503 10.2396 88.4309 10.5469C88.9163 10.849 89.4357 11 89.9891 11C90.5473 11 91.0764 10.849 91.5764 10.5469C92.0764 10.2448 92.4598 9.83594 92.7268 9.32031C92.9987 8.80469 93.1346 8.22396 93.1346 7.57813C93.1346 6.59375 92.8312 5.77083 92.2244 5.10938C91.6225 4.44792 90.8798 4.11719 89.9964 4.11719Z" fill="white"/>
<path d="M100.139 3.0625C101.358 3.0625 102.367 3.53646 103.168 4.48438C103.896 5.34896 104.26 6.3724 104.26 7.55469C104.26 8.74219 103.874 9.78125 103.103 10.6719C102.336 11.5573 101.348 12 100.139 12C98.9256 12 97.9329 11.5573 97.1611 10.6719C96.3941 9.78125 96.0107 8.74219 96.0107 7.55469C96.0107 6.3776 96.3747 5.35677 97.1028 4.49219C97.9038 3.53906 98.9159 3.0625 100.139 3.0625ZM100.139 4.13281C99.2945 4.13281 98.5688 4.46875 97.962 5.14063C97.3553 5.8125 97.0519 6.625 97.0519 7.57813C97.0519 8.19271 97.1902 8.76563 97.4669 9.29688C97.7436 9.82813 98.1174 10.2396 98.5882 10.5313C99.0591 10.8177 99.576 10.9609 100.139 10.9609C100.702 10.9609 101.219 10.8177 101.69 10.5313C102.161 10.2396 102.535 9.82813 102.811 9.29688C103.088 8.76563 103.226 8.19271 103.226 7.57813C103.226 6.625 102.921 5.8125 102.309 5.14063C101.702 4.46875 100.979 4.13281 100.139 4.13281Z" fill="white"/>
<path d="M106.153 3.28125H107.166V4.75C107.52 4.20833 107.884 3.8125 108.258 3.5625C108.772 3.22917 109.313 3.0625 109.881 3.0625C110.265 3.0625 110.629 3.14323 110.974 3.30469C111.318 3.46615 111.6 3.68229 111.818 3.95313C112.037 4.21875 112.226 4.60156 112.386 5.10156C112.726 4.4349 113.151 3.92969 113.66 3.58594C114.17 3.23698 114.719 3.0625 115.306 3.0625C115.854 3.0625 116.337 3.21094 116.755 3.50781C117.177 3.80469 117.49 4.21875 117.694 4.75C117.898 5.28125 118 6.07813 118 7.14063V11.7813H116.959V7.14063C116.959 6.22917 116.898 5.60417 116.777 5.26563C116.655 4.92188 116.447 4.64583 116.151 4.4375C115.859 4.22917 115.51 4.125 115.102 4.125C114.607 4.125 114.153 4.28125 113.74 4.59375C113.333 4.90625 113.034 5.32292 112.845 5.84375C112.656 6.36458 112.561 7.23438 112.561 8.45313V11.7813H111.549V7.42969C111.549 6.40365 111.488 5.70833 111.367 5.34375C111.25 4.97396 111.044 4.67969 110.748 4.46094C110.452 4.23698 110.1 4.125 109.692 4.125C109.221 4.125 108.78 4.27865 108.367 4.58594C107.959 4.88802 107.656 5.29688 107.457 5.8125C107.263 6.32813 107.166 7.11719 107.166 8.17969V11.7813H106.153V3.28125Z" fill="white"/>
<path d="M95.3638 26.1039L91.0249 30.4008C88.2791 27.4921 85.0781 26.0378 81.4219 26.0378C78.2356 26.0378 75.5632 27.0955 73.4047 29.2109C71.261 31.3263 70.1891 33.8972 70.1891 36.9234C70.1891 40.0525 71.305 42.7041 73.5369 44.8783C75.7688 47.0525 78.5219 48.1396 81.7963 48.1396C83.9254 48.1396 85.7168 47.6915 87.1705 46.7954C88.6388 45.8993 89.8208 44.4963 90.7165 42.5866H81.3338V36.7912H97.6324L97.6765 38.1574C97.6765 40.9927 96.9423 43.681 95.474 46.2225C94.0056 48.7639 92.1041 50.703 89.7695 52.0399C87.4348 53.3767 84.6963 54.0451 81.5541 54.0451C78.1916 54.0451 75.1888 53.3179 72.5458 51.8636C69.9174 50.3945 67.8324 48.3085 66.2906 45.6055C64.7635 42.9024 64 39.9864 64 36.8573C64 32.5677 65.417 28.8363 68.2509 25.6632C71.6134 21.8877 75.989 20 81.3779 20C84.1971 20 86.8328 20.5215 89.2849 21.5645C91.3553 22.446 93.3816 23.9591 95.3638 26.1039Z" fill="white"/>
<path d="M101.267 29.255H106.42V32.2739C106.978 31.0839 107.72 30.1805 108.645 29.5635C109.57 28.9465 110.583 28.638 111.684 28.638C112.463 28.638 113.278 28.8437 114.129 29.255L112.257 34.4334C111.552 34.0808 110.972 33.9045 110.517 33.9045C109.592 33.9045 108.807 34.4774 108.16 35.6233C107.529 36.7692 107.213 39.0168 107.213 42.3662L107.235 43.5341V53.2298H101.267V29.255Z" fill="white"/>
<path d="M128.38 28.638C130.641 28.638 132.763 29.2036 134.745 30.3347C136.742 31.4659 138.298 33.001 139.414 34.9402C140.53 36.8793 141.088 38.9727 141.088 41.2204C141.088 43.4827 140.523 45.5981 139.392 47.5666C138.276 49.5352 136.749 51.0777 134.811 52.1941C132.873 53.2959 130.736 53.8468 128.402 53.8468C124.966 53.8468 122.029 52.6275 119.592 50.1889C117.169 47.7356 115.957 44.7608 115.957 41.2644C115.957 37.5184 117.33 34.3966 120.076 31.8993C122.484 29.7251 125.252 28.638 128.38 28.638ZM128.468 34.3012C126.603 34.3012 125.046 34.9549 123.798 36.2623C122.565 37.5551 121.948 39.2151 121.948 41.2424C121.948 43.3284 122.558 45.0178 123.776 46.3106C125.01 47.6034 126.566 48.2497 128.446 48.2497C130.325 48.2497 131.889 47.596 133.137 46.2886C134.385 44.9811 135.009 43.2991 135.009 41.2424C135.009 39.1857 134.392 37.5184 133.159 36.2403C131.94 34.9475 130.377 34.3012 128.468 34.3012Z" fill="white"/>
<path d="M146 29.255H152.079V40.8017C152.079 43.0493 152.233 44.6139 152.541 45.4953C152.85 46.362 153.341 47.0378 154.017 47.5226C154.707 48.0073 155.551 48.2497 156.55 48.2497C157.548 48.2497 158.393 48.0147 159.083 47.5446C159.787 47.0598 160.309 46.3547 160.646 45.4292C160.896 44.7387 161.021 43.2623 161.021 41V29.255H167.056V39.4134C167.056 43.6002 166.725 46.4648 166.065 48.0073C165.257 49.8877 164.068 51.3347 162.497 52.3484C160.925 53.3473 158.928 53.8468 156.506 53.8468C153.877 53.8468 151.748 53.2592 150.118 52.0839C148.503 50.9087 147.365 49.2707 146.705 47.17C146.235 45.7156 146 43.0714 146 39.2371V29.255Z" fill="white"/>
<path d="M179.082 29.255V31.8993C180.168 30.8122 181.343 29.9969 182.606 29.4533C183.868 28.9098 185.219 28.638 186.658 28.638C189.786 28.638 192.443 29.8206 194.631 32.1857C196.819 34.5509 197.913 37.5845 197.913 41.2865C197.913 44.8562 196.782 47.8458 194.521 50.255C192.26 52.6495 189.58 53.8468 186.482 53.8468C185.102 53.8468 183.817 53.6044 182.628 53.1196C181.438 52.6201 180.256 51.8122 179.082 50.6957V62H173.113V29.255H179.082ZM185.403 34.191C183.509 34.191 181.937 34.8374 180.689 36.1301C179.441 37.4229 178.817 39.1123 178.817 41.1983C178.817 43.3284 179.441 45.0546 180.689 46.3767C181.937 47.6842 183.509 48.3379 185.403 48.3379C187.238 48.3379 188.78 47.6695 190.028 46.3326C191.291 44.9958 191.922 43.2917 191.922 41.2204C191.922 39.1637 191.305 37.4816 190.072 36.1742C188.839 34.852 187.282 34.191 185.403 34.191Z" fill="white"/>
<path d="M217.559 32.6044L213.837 36.3284C212.325 34.83 210.952 34.0808 209.719 34.0808C209.043 34.0808 208.514 34.2277 208.133 34.5215C207.751 34.8006 207.56 35.1532 207.56 35.5792C207.56 35.9024 207.678 36.2036 207.912 36.4827C208.162 36.7471 208.764 37.1144 209.719 37.5845L211.921 38.6863C214.241 39.8321 215.834 41 216.701 42.1899C217.567 43.3799 218 44.7754 218 46.3767C218 48.5068 217.214 50.2844 215.643 51.7093C214.087 53.1343 211.994 53.8468 209.366 53.8468C205.871 53.8468 203.082 52.4806 200.997 49.7482L204.697 45.7156C205.402 46.5383 206.224 47.2067 207.164 47.7209C208.118 48.2204 208.962 48.4701 209.697 48.4701C210.489 48.4701 211.128 48.2791 211.613 47.8972C212.097 47.5152 212.34 47.0745 212.34 46.575C212.34 45.6495 211.466 44.7461 209.719 43.8646L207.692 42.851C203.816 40.8972 201.878 38.4512 201.878 35.5131C201.878 33.618 202.604 32.0021 204.058 30.6653C205.526 29.3137 207.399 28.638 209.674 28.638C211.231 28.638 212.692 28.9832 214.057 29.6737C215.438 30.3494 216.605 31.3263 217.559 32.6044Z" fill="white"/>
<path fill-rule="evenodd" clip-rule="evenodd" d="M26 13.958L26 4.00139L27.5146 4.00139C27.0134 3.9726 26.5084 3.95801 26 3.95801C11.6406 3.95801 -1.76417e-06 15.5986 -1.1365e-06 29.958C-5.08827e-07 44.3174 11.6406 55.958 26 55.958C40.3449 55.958 51.9765 44.3408 52 30.0014L41.9999 30.0014C41.9765 38.818 34.8221 45.958 26 45.958C17.1634 45.958 10 38.7946 10 29.958C10 21.1215 17.1634 13.958 26 13.958Z" fill="#DF426F"/>
</svg>
