<svg width="386" height="111" viewBox="0 0 386 111" fill="none" xmlns="http://www.w3.org/2000/svg">
<path d="M119.536 19.04C119.536 16.232 120.784 15.392 122.8 15.392H123.496V12.56C121.624 12.56 120.304 13.376 119.536 14.696V12.776H116.8V26H119.536V19.04ZM125.099 19.328C125.099 23.408 127.859 26.216 131.291 26.216C133.499 26.216 135.083 25.16 135.923 24.032V26H138.683V12.776H135.923V14.696C135.107 13.616 133.571 12.56 131.339 12.56C127.859 12.56 125.099 15.248 125.099 19.328ZM135.923 19.376C135.923 22.232 133.979 23.84 131.915 23.84C129.875 23.84 127.907 22.184 127.907 19.328C127.907 16.472 129.875 14.936 131.915 14.936C133.979 14.936 135.923 16.544 135.923 19.376ZM151.661 26H154.373V18.2C154.373 14.504 152.045 12.56 148.949 12.56C147.365 12.56 145.901 13.208 145.013 14.288V12.776H142.277V26H145.013V18.608C145.013 16.184 146.333 14.936 148.349 14.936C150.341 14.936 151.661 16.184 151.661 18.608V26ZM156.951 19.328C156.951 23.408 159.711 26.216 163.191 26.216C165.351 26.216 166.935 25.208 167.775 24.008V26H170.535V8.24H167.775V14.624C166.767 13.376 164.943 12.56 163.215 12.56C159.711 12.56 156.951 15.248 156.951 19.328ZM167.775 19.376C167.775 22.232 165.831 23.84 163.767 23.84C161.727 23.84 159.759 22.184 159.759 19.328C159.759 16.472 161.727 14.936 163.767 14.936C165.831 14.936 167.775 16.544 167.775 19.376ZM186.728 19.376C186.728 15.224 183.752 12.56 179.984 12.56C176.216 12.56 173.24 15.224 173.24 19.376C173.24 23.528 176.096 26.216 179.864 26.216C183.656 26.216 186.728 23.528 186.728 19.376ZM176.024 19.376C176.024 16.376 177.872 14.936 179.936 14.936C181.976 14.936 183.92 16.376 183.92 19.376C183.92 22.376 181.904 23.84 179.864 23.84C177.8 23.84 176.024 22.376 176.024 19.376ZM208.177 26H210.889V18.2C210.889 14.504 208.537 12.56 205.441 12.56C203.521 12.56 201.649 13.568 200.833 15.176C199.921 13.448 198.169 12.56 196.081 12.56C194.497 12.56 193.057 13.208 192.169 14.288V12.776H189.433V26H192.169V18.608C192.169 16.184 193.489 14.936 195.505 14.936C197.497 14.936 198.817 16.184 198.817 18.608V26H201.529V18.608C201.529 16.184 202.849 14.936 204.865 14.936C206.857 14.936 208.177 16.184 208.177 18.608V26Z" fill="white"/>
<path d="M143.152 40.096C128.608 40.096 117.52 50.752 117.52 65.8C117.52 80.848 128.608 91.432 143.224 91.432C156.616 91.432 165.76 82.072 167.776 71.848V63.064H140.56V70.768H157.84C156.328 77.896 151.36 82.36 143.584 82.36C134.224 82.36 127.888 76.024 127.888 65.8C127.888 55.792 134.152 49.384 143.152 49.384C148.48 49.384 152.656 51.616 154.96 55.864H166.552C163.312 45.784 154.384 40.096 143.152 40.096ZM185.314 71.128C185.314 63.424 188.914 61.12 194.89 61.12H197.554V50.536C192.01 50.536 187.834 53.2 185.314 57.304V51.112H175.234V91H185.314V71.128ZM242.863 71.056C242.863 58.456 233.863 50.464 222.343 50.464C210.823 50.464 201.823 58.456 201.823 71.056C201.823 83.584 210.535 91.648 222.055 91.648C233.647 91.648 242.863 83.584 242.863 71.056ZM212.047 71.056C212.047 63.064 216.871 59.248 222.199 59.248C227.527 59.248 232.495 63.064 232.495 71.056C232.495 78.976 227.383 82.864 222.055 82.864C216.655 82.864 212.047 78.976 212.047 71.056ZM287.913 51.112H277.761V73.072C277.761 79.48 274.305 82.936 268.833 82.936C263.505 82.936 259.977 79.48 259.977 73.072V51.112H249.897V74.512C249.897 85.456 256.593 91.504 265.881 91.504C270.849 91.504 275.241 89.344 277.761 85.96V91H287.913V51.112ZM307.939 56.872V51.112H297.859V110.008H307.939V85.312C310.387 88.552 314.851 91.648 321.115 91.648C331.339 91.648 339.331 83.368 339.331 70.912C339.331 58.456 331.339 50.464 321.115 50.464C314.923 50.464 310.315 53.488 307.939 56.872ZM329.035 70.912C329.035 78.472 323.923 82.792 318.451 82.792C313.051 82.792 307.939 78.616 307.939 71.056C307.939 63.496 313.051 59.32 318.451 59.32C323.923 59.32 329.035 63.352 329.035 70.912ZM377.616 79.624C377.328 65.008 355.224 69.544 355.224 62.272C355.224 59.968 357.168 58.456 360.912 58.456C364.872 58.456 367.32 60.544 367.608 63.64H377.256C376.68 55.72 370.848 50.464 361.2 50.464C351.336 50.464 345.432 55.792 345.432 62.416C345.432 77.032 367.968 72.496 367.968 79.624C367.968 81.928 365.808 83.728 361.848 83.728C357.816 83.728 355.008 81.424 354.648 78.4H344.496C344.928 85.816 351.912 91.648 361.92 91.648C371.64 91.648 377.616 86.464 377.616 79.624Z" fill="white"/>
<rect x="50" y="26" width="15" height="65" fill="#F7B529"/>
<rect x="75" y="57" width="15" height="34" fill="#179C52"/>
<rect x="25" y="57" width="15" height="34" fill="#FF3E30"/>
<rect y="13" width="15" height="78" fill="#176BEF"/>
</svg>
